# xmcd
#
# Track frame offsets: 
#        150
#        21875
#        35099
#        54671
#        72824
#        90443
#        104636
#        124049
#        142009
#        157750
#
# Disc length: 2354 seconds
#
# Revision: 2
# Processed by: cddbd v1.5PL3 Copyright (c) Steve Scherf et al.
# Submitted via: ExactAudioCopy v0.95a4
#
DISCID=8409300a
DTITLE=Zorn - Unfehlbar
DYEAR=2000
DGENRE=Metal
TTITLE0=Erwacht
TTITLE1=Krieg
TTITLE2=Unfehlbar
TTITLE3=Kein Gott
TTITLE4=Todesstrafe
TTITLE5=D-Land
TTITLE6=Eisbär
TTITLE7=Zwei gegen den Rest der Welt
TTITLE8=Lass das
TTITLE9=Dicke
EXTD=
EXTT0=
EXTT1=
EXTT2=
EXTT3=
EXTT4=
EXTT5=
EXTT6=
EXTT7=
EXTT8=
EXTT9=
PLAYORDER=
